# xmcd
#
# Track frame offsets:
#	150
#	18867
#	33255
#	49602
#	61780
#	75492
#	90625
#	112855
#	125092
#	152647
#	171975
#
# Disc length: 2528 seconds
# Revision: 2
# Processed by: cddbd v1.5.2PL0 Copyright (c) Steve Scherf et al.
# Submitted via: dBpowerAMP V12.0
#
DISCID=7909de0b
DTITLE=B. B. King - Introducing B.B. King [dBP]
DYEAR=1987
DGENRE=Blues
TTITLE0=Into the Night
TTITLE1=Better Not Look Down
TTITLE2=My Lucille
TTITLE3=Caldonia
TTITLE4=Sell My Monkey
TTITLE5=In the Midnight Hour
TTITLE6=The Thrill Is Gone
TTITLE7=Broken Heart
TTITLE8=The Victim
TTITLE9=Sweet Sixteen
TTITLE10=Rock Me Baby
EXTD=
EXTT0=
EXTT1=
EXTT2=
EXTT3=
EXTT4=
EXTT5=
EXTT6=
EXTT7=
EXTT8=
EXTT9=
EXTT10=
PLAYORDER=
